<?xml version="1.0" encoding="UTF-8" standalone="no"?>
<!DOCTYPE svg PUBLIC "-//W3C//DTD SVG 1.1//EN" "http://www.w3.org/Graphics/SVG/1.1/DTD/svg11.dtd">
<svg width="100%" height="100%" viewBox="0 0 934 178" version="1.1" xmlns="http://www.w3.org/2000/svg" xmlns:xlink="http://www.w3.org/1999/xlink" xml:space="preserve" xmlns:serif="http://www.serif.com/" style="fill-rule:evenodd;clip-rule:evenodd;stroke-linejoin:round;stroke-miterlimit:2;">
    <g transform="matrix(1,0,0,1,-191,-303)">
        <g>
            <path d="M399.52,365.25L411.76,365.25L425.33,387.08L438.9,365.25L451.14,365.25L451.14,416.87L439.86,416.87L439.86,383.17L425.33,405.22L425.03,405.22L410.65,383.39L410.65,416.87L399.52,416.87L399.52,365.25Z" style="fill:rgb(43,38,38);fill-rule:nonzero;"/>
            <rect x="462.2" y="365.25" width="11.36" height="51.62" style="fill:rgb(43,38,38);fill-rule:nonzero;"/>
            <path d="M482.33,391.2L482.33,391.05C482.33,376.38 493.39,364.36 509.24,364.36C518.97,364.36 524.8,367.6 529.59,372.32L522.36,380.65C518.38,377.04 514.32,374.82 509.16,374.82C500.46,374.82 494.19,382.05 494.19,390.89L494.19,391.04C494.19,399.89 500.31,407.26 509.16,407.26C515.06,407.26 518.67,404.9 522.73,401.21L529.96,408.51C524.65,414.19 518.75,417.73 508.8,417.73C493.61,417.75 482.33,406.02 482.33,391.2Z" style="fill:rgb(43,38,38);fill-rule:nonzero;"/>
            <path d="M537.2,365.25L548.56,365.25L548.56,385.68L569.5,385.68L569.5,365.25L580.86,365.25L580.86,416.87L569.5,416.87L569.5,396.15L548.56,396.15L548.56,416.87L537.2,416.87L537.2,365.25Z" style="fill:rgb(43,38,38);fill-rule:nonzero;"/>
            <path d="M609.1,364.88L619.57,364.88L641.69,416.86L629.82,416.86L625.1,405.28L603.27,405.28L598.55,416.86L586.97,416.86L609.1,364.88ZM621.04,395.26L614.18,378.52L607.32,395.26L621.04,395.26Z" style="fill:rgb(43,38,38);fill-rule:nonzero;"/>
            <path d="M647.81,365.25L686.74,365.25L686.74,375.35L659.1,375.35L659.1,385.82L683.43,385.82L683.43,395.92L659.1,395.92L659.1,406.76L687.12,406.76L687.12,416.86L647.82,416.86L647.82,365.25L647.81,365.25Z" style="fill:rgb(43,38,38);fill-rule:nonzero;"/>
            <path d="M695.38,365.25L706.74,365.25L706.74,406.54L732.47,406.54L732.47,416.86L695.38,416.86L695.38,365.25Z" style="fill:rgb(43,38,38);fill-rule:nonzero;"/>
            <path d="M742.78,365.25L753.25,365.25L777.44,397.03L777.44,365.25L788.65,365.25L788.65,416.87L778.99,416.87L753.99,384.06L753.99,416.87L742.78,416.87L742.78,365.25Z" style="fill:rgb(138,149,153);fill-rule:nonzero;"/>
            <path d="M799.2,365.25L838.13,365.25L838.13,375.35L810.48,375.35L810.48,385.82L834.81,385.82L834.81,395.92L810.48,395.92L810.48,406.76L838.5,406.76L838.5,416.86L799.2,416.86L799.2,365.25Z" style="fill:rgb(138,149,153);fill-rule:nonzero;"/>
            <path d="M845.95,394.74L845.95,365.25L857.31,365.25L857.31,394.45C857.31,402.86 861.51,407.21 868.45,407.21C875.38,407.21 879.58,403.01 879.58,394.82L879.58,365.25L890.94,365.25L890.94,394.38C890.94,410.01 882.17,417.68 868.3,417.68C854.43,417.68 845.95,409.93 845.95,394.74Z" style="fill:rgb(138,149,153);fill-rule:nonzero;"/>
            <path d="M900.67,365.25L912.03,365.25L912.03,385.68L932.97,385.68L932.97,365.25L944.33,365.25L944.33,416.87L932.97,416.87L932.97,396.15L912.03,396.15L912.03,416.87L900.67,416.87L900.67,365.25Z" style="fill:rgb(138,149,153);fill-rule:nonzero;"/>
            <path d="M952.58,391.2L952.58,391.05C952.58,376.38 964.16,364.36 980.09,364.36C996.02,364.36 1007.45,376.23 1007.45,390.91L1007.45,391.06C1007.45,405.73 995.87,417.75 979.94,417.75C964.01,417.75 952.58,405.88 952.58,391.2ZM995.57,391.2L995.57,391.05C995.57,382.2 989.08,374.83 979.94,374.83C970.8,374.83 964.46,382.06 964.46,390.9L964.46,391.05C964.46,399.9 970.95,407.27 980.09,407.27C989.23,407.28 995.57,400.05 995.57,391.2Z" style="fill:rgb(138,149,153);fill-rule:nonzero;"/>
            <path d="M1015.71,365.25L1027.07,365.25L1027.07,406.54L1052.8,406.54L1052.8,416.86L1015.71,416.86L1015.71,365.25Z" style="fill:rgb(138,149,153);fill-rule:nonzero;"/>
            <path d="M1059.51,365.25L1079.64,365.25C1095.86,365.25 1107.07,376.38 1107.07,390.91L1107.07,391.06C1107.07,405.59 1095.86,416.87 1079.64,416.87L1059.51,416.87L1059.51,365.25ZM1079.64,406.61C1088.93,406.61 1095.2,400.34 1095.2,391.2L1095.2,391.05C1095.2,381.91 1088.93,375.49 1079.64,375.49L1070.86,375.49L1070.86,406.61L1079.64,406.61Z" style="fill:rgb(138,149,153);fill-rule:nonzero;"/>
        </g>
        <path d="M333.24,331.24L333.24,423.85L286.94,377.54L240.63,331.24L213.59,331.24L213.59,450.88L240.63,450.88L240.63,369.47L322.03,450.88L360.27,450.88L360.27,331.24L333.24,331.24Z" style="fill:url(#_Linear1);fill-rule:nonzero;"/>
        <path d="M292.85,371.94L311.97,391.06L333.24,369.47L333.24,331.24L292.85,371.94Z" style="fill:url(#_Linear2);fill-rule:nonzero;"/>
    </g>
    <defs>
        <linearGradient id="_Linear1" x1="0" y1="0" x2="1" y2="0" gradientUnits="userSpaceOnUse" gradientTransform="matrix(108.083,122.042,-122.042,108.083,233.096,330.272)"><stop offset="0" style="stop-color:rgb(18,209,224);stop-opacity:1"/><stop offset="1" style="stop-color:rgb(11,105,170);stop-opacity:1"/></linearGradient>
        <linearGradient id="_Linear2" x1="0" y1="0" x2="1" y2="0" gradientUnits="userSpaceOnUse" gradientTransform="matrix(42.6915,0,0,42.6915,293.621,361.146)"><stop offset="0" style="stop-color:rgb(18,209,224);stop-opacity:1"/><stop offset="1" style="stop-color:rgb(11,105,170);stop-opacity:1"/></linearGradient>
    </defs>
</svg>
